# xmcd
#
# Track frame offsets:
#	150
#	20740
#	36465
#	57223
#	70793
#	82135
#	93904
#	109680
#	121639
#	137817
#	149144
#	167804
#	183027
#	192012
#	207471
#	219811
#	231249
#	245262
#	257504
#	270668
#	283378
#	297285
#	313627
#
# Disc length: 4370 seconds
#
# Revision: 1
# Processed by: cddbd v1.5.2PL0 Copyright (c) Steve Scherf et al.
# Submitted via: audiograbber 1.83.01
#
DISCID=5c111017
DTITLE=Dolly Parton - Dumplin' (OST Deluxe Edtion)
DYEAR=2018
DGENRE=Country
TTITLE0=Here I Am
TTITLE1=Holdin' On To You
TTITLE2=Girl In The Movies
TTITLE3=Red Shoes
TTITLE4=Why
TTITLE5=Dumb Blonde
TTITLE6=Here You Come Again
TTITLE7=Who
TTITLE8=Push And Pull
TTITLE9=If We Don't (With Alison Krauss)
TTITLE10=Two Doors Down
TTITLE11=Jolene (New String Version)
TTITLE12=Here You Come Again (Dumplin' Remix)
TTITLE13=Jolene (Dumplin' Remix)
TTITLE14=9 To 5
TTITLE15=Dumb Blonde
TTITLE16=Two Doors Down
TTITLE17=Jolene
TTITLE18=Here You Come Again
TTITLE19=Holdin' On To You
TTITLE20=Just Because I'm
TTITLE21=ter Get To Livin'
TTITLE22=High And Mighty (With The Christ Church Choir)
EXTD=
EXTT0=
EXTT1=
EXTT2=
EXTT3=
EXTT4=
EXTT5=
EXTT6=
EXTT7=
EXTT8=
EXTT9=
EXTT10=
EXTT11=
EXTT12=
EXTT13=
EXTT14=
EXTT15=
EXTT16=
EXTT17=
EXTT18=
EXTT19=
EXTT20=
EXTT21=
EXTT22=
PLAYORDER=
